<?xml version="1.0" encoding="UTF-8" standalone="no"?>
<svg
   viewBox="0 0 1440 320"
   version="1.1"
   id="svg19"
   sodipodi:docname="wave (7).svg"
   inkscape:version="1.2 (dc2aedaf03, 2022-05-15)"
   xmlns:inkscape="http://www.inkscape.org/namespaces/inkscape"
   xmlns:sodipodi="http://sodipodi.sourceforge.net/DTD/sodipodi-0.dtd"
   xmlns="http://www.w3.org/2000/svg"
   xmlns:svg="http://www.w3.org/2000/svg">
  <defs
     id="defs23" />
  <sodipodi:namedview
     id="namedview21"
     pagecolor="#ffffff"
     bordercolor="#000000"
     borderopacity="0.25"
     inkscape:showpageshadow="2"
     inkscape:pageopacity="0.0"
     inkscape:pagecheckerboard="0"
     inkscape:deskcolor="#d1d1d1"
     showgrid="false"
     inkscape:zoom="1.2361111"
     inkscape:cx="720"
     inkscape:cy="160.17978"
     inkscape:window-width="1920"
     inkscape:window-height="974"
     inkscape:window-x="-11"
     inkscape:window-y="-11"
     inkscape:window-maximized="1"
     inkscape:current-layer="svg19" />
  <path
     fill="#bdc3c7"
     fill-opacity="1"
     d="m 1440,32 -40,21.3 C 1360,75 1280,117 1200,128 1120,139 1040,117 960,128 880,139 800,181 720,213.3 640,245 560,267 480,245.3 400,224 320,160 240,144 160,128 80,160 40,176 L 0,192 v 128 h 40 c 40,0 120,0 200,0 80,0 160,0 240,0 80,0 160,0 240,0 80,0 160,0 240,0 80,0 160,0 240,0 80,0 160,0 200,0 h 40 z"
     id="path17" />
</svg>
