<?xml version="1.0" encoding="UTF-8" standalone="no"?>
<!-- Created with Inkscape (http://www.inkscape.org/) -->

<svg
   width="297mm"
   height="210mm"
   viewBox="0 0 297 210"
   version="1.1"
   id="svg5"
   inkscape:export-filename="1AL.grp1.Jakub.Data.png"
   inkscape:export-xdpi="96"
   inkscape:export-ydpi="96"
   inkscape:version="1.2 (dc2aedaf03, 2022-05-15)"
   sodipodi:docname="pop-art spotify.svg"
   xmlns:inkscape="http://www.inkscape.org/namespaces/inkscape"
   xmlns:sodipodi="http://sodipodi.sourceforge.net/DTD/sodipodi-0.dtd"
   xmlns="http://www.w3.org/2000/svg"
   xmlns:svg="http://www.w3.org/2000/svg">
  <sodipodi:namedview
     id="namedview7"
     pagecolor="#ffffff"
     bordercolor="#000000"
     borderopacity="0.25"
     inkscape:showpageshadow="2"
     inkscape:pageopacity="0.0"
     inkscape:pagecheckerboard="0"
     inkscape:deskcolor="#d1d1d1"
     inkscape:document-units="mm"
     showgrid="false"
     showguides="true"
     inkscape:zoom="1.4770342"
     inkscape:cx="502.35802"
     inkscape:cy="381.16923"
     inkscape:window-width="2880"
     inkscape:window-height="1514"
     inkscape:window-x="2869"
     inkscape:window-y="-11"
     inkscape:window-maximized="1"
     inkscape:current-layer="layer1">
    <sodipodi:guide
       position="148.5,61.67914"
       orientation="-1,0"
       id="guide9"
       inkscape:locked="false"
       inkscape:label=""
       inkscape:color="rgb(0,134,229)" />
    <sodipodi:guide
       position="144.02171,105"
       orientation="0,1"
       id="guide61"
       inkscape:locked="false"
       inkscape:label=""
       inkscape:color="rgb(0,134,229)" />
    <sodipodi:guide
       position="-0.12666509,135.64759"
       orientation="1,0"
       id="guide1653"
       inkscape:locked="false" />
  </sodipodi:namedview>
  <defs
     id="defs2" />
  <g
     inkscape:label="Warstwa 1"
     inkscape:groupmode="layer"
     id="layer1">
    <rect
       style="fill:#01ffff;fill-opacity:0.99519229;stroke:none;stroke-width:3.083"
       id="rect2905"
       width="147.94482"
       height="104.87869"
       x="0.50666034"
       y="0" />
    <rect
       style="fill:#00ff00;fill-opacity:1;stroke:none;stroke-width:2.88623"
       id="rect3689"
       width="149.39566"
       height="105.68757"
       x="148.67914"
       y="-0.35826325" />
    <rect
       style="fill:#ffff00;fill-opacity:0.995192;stroke:none;stroke-width:2.91528"
       id="rect4315"
       width="149.02434"
       height="105.00147"
       x="148.32088"
       y="105.32931" />
    <rect
       style="fill:#ff0000;fill-opacity:0.995192;stroke:none;stroke-width:2.8972"
       id="rect5201"
       width="148.70767"
       height="105.58945"
       x="0.14235364"
       y="105.1584" />
    <path
       class="fil1"
       d="m 74.932953,92.620488 c -11.08136,0 -21.138067,-4.497054 -28.405465,-11.764453 C 39.260089,73.588637 34.763035,63.53193 34.763035,52.45057 c 0,-11.081359 4.497054,-21.138066 11.764453,-28.405465 7.267398,-7.267399 17.324105,-11.764453 28.405465,-11.764453 11.081359,0 21.138066,4.497054 28.405467,11.764453 7.26739,7.267399 11.76445,17.324106 11.76445,28.405465 0,11.08136 -4.49706,21.138067 -11.76445,28.405465 -7.267401,7.267399 -17.324108,11.764453 -28.405467,11.764453 z M 48.804483,78.57904 c 6.679168,6.679178 15.919956,10.815708 26.12847,10.815708 10.208514,0 19.449301,-4.13653 26.128467,-10.815708 6.67918,-6.679168 10.81571,-15.919956 10.81571,-26.12847 0,-10.208514 -4.13653,-19.449301 -10.81571,-26.12847 -6.679166,-6.679177 -15.919953,-10.815708 -26.128467,-10.815708 -10.208514,0 -19.449302,4.136531 -26.12847,10.815708 -6.679178,6.679169 -10.815708,15.919956 -10.815708,26.12847 0,10.208514 4.13653,19.449302 10.815708,26.12847 z m 2.599564,-36.545709 c 0.189744,-0.07587 0.436423,-0.170771 0.702066,-0.24667 0.151799,-0.05693 0.41745,-0.132826 0.872846,-0.284625 0.683102,-0.208725 1.404149,-0.398468 2.163141,-0.607194 0.702075,-0.170779 1.461076,-0.360523 2.295968,-0.550276 5.749405,-1.290295 11.726507,-1.916471 17.646683,-1.688764 5.502726,0.227697 10.967507,1.195415 16.223562,3.073932 1.404141,0.512322 2.827262,1.081571 4.231411,1.764673 1.404141,0.645148 2.732391,1.347214 4.022685,2.125188 0.360515,0.208725 0.758991,0.246679 1.119521,0.151798 0.37949,-0.09487 0.70207,-0.32257 0.9108,-0.664121 0.20872,-0.360523 0.26564,-0.758992 0.17077,-1.138497 -0.0949,-0.360523 -0.32257,-0.702066 -0.6831,-0.910791 -1.404147,-0.8349 -2.827267,-1.593893 -4.25038,-2.258022 -1.442094,-0.683093 -2.941115,-1.290296 -4.516035,-1.859536 -5.559653,-1.99237 -11.271104,-3.017015 -16.963582,-3.263694 -6.261727,-0.265643 -12.523454,0.417451 -18.576456,1.764673 -1.309268,0.284624 -2.523665,0.607194 -3.567282,0.891818 -1.233369,0.360524 -2.182123,0.664121 -2.827271,0.891827 l -0.01895,0.01895 c -0.379496,0.151799 -0.66412,0.417451 -0.815919,0.758993 -0.17078,0.360524 -0.189752,0.759001 -0.05693,1.138497 l 0.01895,0.03798 c 0.151798,0.360523 0.41745,0.645148 0.759001,0.796946 0.360523,0.170771 0.758992,0.189744 1.138497,0.05693 z m 1.688765,2.789317 c -0.32257,0.113853 -0.49335,0.17078 -0.569249,0.208725 -1.214396,0.436423 -2.485711,0.360524 -3.586263,-0.132826 -1.081571,-0.512322 -1.992362,-1.423121 -2.447766,-2.637509 l -0.03798,-0.113854 v -0.01895 c -0.398477,-1.176451 -0.303597,-2.390839 0.170772,-3.453437 0.493349,-1.081571 1.423121,-1.99237 2.637518,-2.447766 l 0.113845,-0.03798 c 0.759001,-0.265643 1.7457,-0.607194 2.960096,-0.929763 1.043617,-0.303606 2.295959,-0.626176 3.757035,-0.948754 6.299672,-1.40414 12.846023,-2.106215 19.373393,-1.82159 6.03403,0.24667 12.068059,1.328241 17.931308,3.434464 1.593893,0.569249 3.187786,1.214397 4.781679,1.97339 1.574919,0.740019 3.09291,1.536966 4.53501,2.40982 1.11952,0.664121 1.85954,1.707738 2.16314,2.865208 0.3036,1.176451 0.1518,2.447766 -0.51232,3.56729 -0.66412,1.119516 -1.72672,1.859545 -2.88419,2.144161 -1.15747,0.303605 -2.428796,0.151807 -3.54831,-0.512322 -1.23337,-0.74002 -2.48572,-1.404141 -3.738062,-1.992362 -1.252342,-0.588222 -2.580592,-1.119525 -3.96576,-1.612874 -4.952458,-1.783637 -10.094661,-2.694437 -15.255844,-2.903162 -5.654524,-0.227698 -11.347003,0.379496 -16.849729,1.612866 -0.740019,0.170779 -1.480048,0.341551 -2.182114,0.531303 -0.740028,0.189744 -1.423122,0.379496 -2.030324,0.569249 -0.208717,0.05693 -0.493341,0.151798 -0.815919,0.24667 z m 2.827262,8.842319 c 0.07587,-0.01895 0.208725,-0.09488 0.379505,-0.17078 h 0.01895 c 0.113845,-0.05693 0.24667,-0.113844 0.436423,-0.189744 0.398469,-0.170779 0.815919,-0.322578 1.252342,-0.474376 0.436423,-0.151799 0.891827,-0.284625 1.404149,-0.436423 4.819632,-1.347214 10.455184,-1.802618 16.86871,-1.005672 5.749396,0.702075 12.143949,2.447766 19.126723,5.445808 0.379496,0.151798 0.796946,0.151798 1.138497,0 0.360524,-0.132826 0.664121,-0.41745 0.815919,-0.777974 0.170772,-0.379496 0.151799,-0.796946 0.01895,-1.138497 -0.132826,-0.360524 -0.417451,-0.664121 -0.796947,-0.815919 -7.343298,-3.168813 -14.117347,-4.971431 -20.284193,-5.692479 -6.660196,-0.796946 -12.580381,-0.303597 -17.70361,1.119517 -0.929773,0.265651 -1.726719,0.531303 -2.371867,0.777973 -0.721047,0.265652 -1.309269,0.531304 -1.72671,0.759001 -0.360524,0.189744 -0.58823,0.512323 -0.702075,0.872846 -0.113853,0.360524 -0.07587,0.777974 0.113845,1.138497 0.189752,0.360524 0.51233,0.607195 0.872854,0.721048 0.379496,0.113844 0.777965,0.07587 1.138489,-0.132826 z m 1.707746,2.751363 v 0 l -0.189752,0.07587 c -1.119516,0.626176 -2.409812,0.721048 -3.54831,0.379497 -1.15747,-0.341543 -2.182114,-1.138498 -2.808289,-2.276986 -0.607194,-1.138498 -0.702075,-2.409821 -0.360524,-3.54831 0.341551,-1.157478 1.119525,-2.182123 2.258014,-2.808298 0.51233,-0.265643 1.214396,-0.588221 2.144169,-0.929764 0.759001,-0.284624 1.631846,-0.58823 2.618545,-0.853873 5.502726,-1.555947 11.840352,-2.087242 18.936971,-1.233369 6.432498,0.758993 13.510153,2.63751 21.157048,5.920176 1.195413,0.512322 2.068259,1.461067 2.523668,2.580592 0.43642,1.100543 0.45539,2.390839 -0.038,3.586255 -0.512327,1.195424 -1.461071,2.068269 -2.580595,2.504692 -1.119516,0.455396 -2.39084,0.474377 -3.586264,-0.03798 -6.698141,-2.865217 -12.789097,-4.516036 -18.253877,-5.199138 -5.977094,-0.758992 -11.195204,-0.341542 -15.635341,0.9108 -0.436423,0.113853 -0.834892,0.24667 -1.214388,0.379496 -0.41745,0.132826 -0.777974,0.284624 -1.081571,0.398478 -0.132825,0.05693 -0.246679,0.113844 -0.34155,0.151798 z m -0.626175,8.462814 c 0.07587,-0.03798 0.227698,-0.09487 0.41745,-0.151799 l 0.512322,-0.170771 v 0 c 0.398478,-0.132826 0.853873,-0.265652 1.347223,-0.398477 0.436422,-0.113845 0.910799,-0.227698 1.442094,-0.360524 4.952458,-1.138489 10.17056,-1.499021 15.388661,-0.777965 4.781688,0.66412 9.582339,2.201087 14.212219,4.857578 0.360524,0.208725 0.759001,0.24667 1.119525,0.132825 0.379496,-0.09488 0.702074,-0.322578 0.910791,-0.683101 v 0 c 0.189752,-0.360524 0.246679,-0.777974 0.132826,-1.138489 -0.09487,-0.360532 -0.341543,-0.683102 -0.702066,-0.891827 -4.990412,-2.865216 -10.113642,-4.516036 -15.198918,-5.218102 -5.616579,-0.777973 -11.195204,-0.398477 -16.527159,0.834892 -0.929772,0.208725 -1.707746,0.398478 -2.333921,0.588222 -0.758993,0.227706 -1.366195,0.436431 -1.821591,0.607202 -0.379496,0.151799 -0.66412,0.436423 -0.815919,0.796947 -0.151798,0.34155 -0.170779,0.740019 -0.01895,1.138497 0.151807,0.379496 0.436423,0.664121 0.796955,0.815919 0.341543,0.151799 0.758993,0.170771 1.138489,0.01895 z m 1.442094,2.884188 c -0.132826,0.03798 -0.227698,0.07587 -0.284624,0.09488 -1.195416,0.474368 -2.485711,0.417442 -3.586255,-0.05693 -1.100552,-0.493349 -2.011343,-1.385167 -2.48572,-2.599564 -0.474368,-1.195424 -0.41745,-2.48572 0.05693,-3.586263 0.493349,-1.100544 1.385168,-2.011343 2.599564,-2.485712 0.49335,-0.189752 1.176443,-0.436431 2.087243,-0.702074 0.74002,-0.208725 1.57492,-0.436423 2.504692,-0.645148 5.692478,-1.309269 11.669581,-1.707746 17.703602,-0.872846 5.483753,0.758993 10.986487,2.542638 16.337415,5.597598 1.138489,0.645148 1.878517,1.669801 2.201087,2.846243 0.322578,1.157471 0.189752,2.428794 -0.455396,3.567283 v -0.01895 c -0.645148,1.138498 -1.669792,1.89749 -2.827262,2.201096 -1.176451,0.32257 -2.447766,0.189744 -3.567291,-0.436423 -4.269356,-2.447766 -8.671539,-3.870888 -13.035776,-4.459109 -4.838605,-0.664121 -9.658238,-0.341551 -14.269137,0.721047 -0.436422,0.09487 -0.872845,0.208725 -1.309277,0.32257 -0.417441,0.113853 -0.815919,0.227698 -1.214388,0.360524 v 0 z"
       id="path5625"
       style="clip-rule:evenodd;fill:#ffff00;fill-rule:nonzero;stroke-width:0.0189749;image-rendering:optimizeQuality;shape-rendering:geometricPrecision;text-rendering:geometricPrecision;fill-opacity:1" />
    <path
       class="fil1"
       d="m 227.33377,92.620488 c -11.08142,0 -21.13819,-4.497054 -28.40563,-11.764453 -7.26744,-7.267398 -11.76452,-17.324105 -11.76452,-28.405465 0,-11.081359 4.49708,-21.138066 11.76452,-28.405465 7.26744,-7.267399 17.32421,-11.764453 28.40563,-11.764453 11.08142,0 21.13818,4.497054 28.40561,11.764453 7.26739,7.267399 11.76445,17.324106 11.76445,28.405465 0,11.08136 -4.49706,21.138067 -11.76445,28.405465 -7.26743,7.267399 -17.32419,11.764453 -28.40561,11.764453 z M 201.20515,78.57904 c 6.67921,6.679178 15.92005,10.815708 26.12862,10.815708 10.20857,0 19.44941,-4.13653 26.12861,-10.815708 6.67918,-6.679168 10.81571,-15.919956 10.81571,-26.12847 0,-10.208514 -4.13653,-19.449301 -10.81571,-26.12847 -6.6792,-6.679177 -15.92004,-10.815708 -26.12861,-10.815708 -10.20857,0 -19.44941,4.136531 -26.12862,10.815708 -6.67922,6.679169 -10.81577,15.919956 -10.81577,26.12847 0,10.208514 4.13655,19.449302 10.81577,26.12847 z m 2.59958,-36.545709 c 0.18974,-0.07587 0.43642,-0.170771 0.70207,-0.24667 0.1518,-0.05693 0.41745,-0.132826 0.87285,-0.284625 0.68311,-0.208725 1.40416,-0.398468 2.16315,-0.607194 0.70208,-0.170779 1.46109,-0.360523 2.29598,-0.550276 5.74944,-1.290295 11.72658,-1.916471 17.64679,-1.688764 5.50276,0.227697 10.96757,1.195415 16.22365,3.073932 1.40415,0.512322 2.82728,1.081571 4.23144,1.764673 1.40415,0.645148 2.7324,1.347214 4.02271,2.125188 0.36051,0.208725 0.75899,0.246679 1.11952,0.151798 0.37949,-0.09487 0.70207,-0.32257 0.9108,-0.664121 0.20872,-0.360523 0.26564,-0.758992 0.17077,-1.138497 -0.0949,-0.360523 -0.32257,-0.702066 -0.6831,-0.910791 -1.40415,-0.8349 -2.82728,-1.593893 -4.2504,-2.258022 -1.4421,-0.683093 -2.94113,-1.290296 -4.51606,-1.859536 -5.55969,-1.99237 -11.27117,-3.017015 -16.96368,-3.263694 -6.26176,-0.265643 -12.52352,0.417451 -18.57656,1.764673 -1.30928,0.284624 -2.52368,0.607194 -3.5673,0.891818 -1.23338,0.360524 -2.18214,0.664121 -2.82729,0.891827 l -0.0189,0.01895 c -0.3795,0.151799 -0.66412,0.417451 -0.81592,0.758993 -0.17078,0.360524 -0.18976,0.759001 -0.0569,1.138497 l 0.019,0.03798 c 0.15179,0.360523 0.41745,0.645148 0.759,0.796946 0.36053,0.170771 0.759,0.189744 1.13851,0.05693 z m 1.68877,2.789317 c -0.32257,0.113853 -0.49335,0.17078 -0.56925,0.208725 -1.2144,0.436423 -2.48572,0.360524 -3.58628,-0.132826 -1.08158,-0.512322 -1.99238,-1.423121 -2.44778,-2.637509 l -0.038,-0.113854 v -0.01895 c -0.39848,-1.176451 -0.3036,-2.390839 0.17077,-3.453437 0.49335,-1.081571 1.42313,-1.99237 2.63754,-2.447766 l 0.11384,-0.03798 c 0.759,-0.265643 1.74571,-0.607194 2.96011,-0.929763 1.04362,-0.303606 2.29598,-0.626176 3.75706,-0.948754 6.29971,-1.40414 12.8461,-2.106215 19.3735,-1.82159 6.03407,0.24667 12.06813,1.328241 17.93141,3.434464 1.5939,0.569249 3.18781,1.214397 4.78171,1.97339 1.57493,0.740019 3.09292,1.536966 4.53502,2.40982 1.11952,0.664121 1.85954,1.707738 2.16314,2.865208 0.3036,1.176451 0.1518,2.447766 -0.51232,3.56729 -0.66412,1.119516 -1.72672,1.859545 -2.88419,2.144161 -1.15747,0.303605 -2.4288,0.151807 -3.54832,-0.512322 -1.23338,-0.74002 -2.48574,-1.404141 -3.73809,-1.992362 -1.25235,-0.588222 -2.5806,-1.119525 -3.96578,-1.612874 -4.95248,-1.783637 -10.09472,-2.694437 -15.25593,-2.903162 -5.65455,-0.227698 -11.34707,0.379496 -16.84983,1.612866 -0.74002,0.170779 -1.48005,0.341551 -2.18212,0.531303 -0.74003,0.189744 -1.42313,0.379496 -2.03034,0.569249 -0.20871,0.05693 -0.49334,0.151798 -0.81592,0.24667 z m 2.82728,8.842319 c 0.0759,-0.01895 0.20873,-0.09488 0.37951,-0.17078 h 0.019 c 0.11384,-0.05693 0.24667,-0.113844 0.43643,-0.189744 0.39847,-0.170779 0.81592,-0.322578 1.25234,-0.474376 0.43643,-0.151799 0.89184,-0.284625 1.40416,-0.436423 4.81966,-1.347214 10.45525,-1.802618 16.86881,-1.005672 5.74943,0.702075 12.14402,2.447766 19.12683,5.445808 0.3795,0.151798 0.79695,0.151798 1.1385,0 0.36053,-0.132826 0.66413,-0.41745 0.81593,-0.777974 0.17077,-0.379496 0.1518,-0.796946 0.0189,-1.138497 -0.13283,-0.360524 -0.41746,-0.664121 -0.79696,-0.815919 -7.34334,-3.168813 -14.11742,-4.971431 -20.2843,-5.692479 -6.66024,-0.796946 -12.58046,-0.303597 -17.70372,1.119517 -0.92977,0.265651 -1.72672,0.531303 -2.37187,0.777973 -0.72106,0.265652 -1.30928,0.531304 -1.72672,0.759001 -0.36053,0.189744 -0.58824,0.512323 -0.70208,0.872846 -0.11386,0.360524 -0.0759,0.777974 0.11384,1.138497 0.18976,0.360524 0.51233,0.607195 0.87286,0.721048 0.3795,0.113844 0.77797,0.07587 1.1385,-0.132826 z m 1.70776,2.751363 v 0 l -0.18976,0.07587 c -1.11952,0.626176 -2.40982,0.721048 -3.54833,0.379497 -1.15747,-0.341543 -2.18212,-1.138498 -2.8083,-2.276986 -0.6072,-1.138498 -0.70208,-2.409821 -0.36053,-3.54831 0.34156,-1.157478 1.11953,-2.182123 2.25803,-2.808298 0.51233,-0.265643 1.2144,-0.588221 2.14418,-0.929764 0.75901,-0.284624 1.63186,-0.58823 2.61856,-0.853873 5.50276,-1.555947 11.84042,-2.087242 18.93708,-1.233369 6.43254,0.758993 13.51023,2.63751 21.15717,5.920176 1.19542,0.512322 2.06827,1.461067 2.52368,2.580592 0.43642,1.100543 0.45539,2.390839 -0.038,3.586255 -0.51233,1.195424 -1.46108,2.068269 -2.58061,2.504692 -1.11952,0.455396 -2.39085,0.474377 -3.58629,-0.03798 -6.69817,-2.865217 -12.78916,-4.516036 -18.25397,-5.199138 -5.97713,-0.758992 -11.19527,-0.341542 -15.63544,0.9108 -0.43642,0.113853 -0.83489,0.24667 -1.21439,0.379496 -0.41745,0.132826 -0.77798,0.284624 -1.08158,0.398478 -0.13282,0.05693 -0.24668,0.113844 -0.34155,0.151798 z m -0.62618,8.462814 c 0.0759,-0.03798 0.2277,-0.09487 0.41745,-0.151799 l 0.51233,-0.170771 v 0 c 0.39848,-0.132826 0.85388,-0.265652 1.34723,-0.398477 0.43642,-0.113845 0.9108,-0.227698 1.4421,-0.360524 4.95249,-1.138489 10.17062,-1.499021 15.38875,-0.777965 4.78171,0.66412 9.58239,2.201087 14.2123,4.857578 0.36052,0.208725 0.759,0.24667 1.11953,0.132825 0.3795,-0.09488 0.70208,-0.322578 0.91079,-0.683101 v 0 c 0.18976,-0.360524 0.24669,-0.777974 0.13283,-1.138489 -0.0949,-0.360532 -0.34154,-0.683102 -0.70207,-0.891827 -4.99044,-2.865216 -10.1137,-4.516036 -15.199,-5.218102 -5.61661,-0.777973 -11.19527,-0.398477 -16.52726,0.834892 -0.92977,0.208725 -1.70775,0.398478 -2.33393,0.588222 -0.759,0.227706 -1.3662,0.436431 -1.8216,0.607202 -0.3795,0.151799 -0.66412,0.436423 -0.81592,0.796947 -0.1518,0.34155 -0.17079,0.740019 -0.019,1.138497 0.1518,0.379496 0.43642,0.664121 0.79695,0.815919 0.34155,0.151799 0.759,0.170771 1.1385,0.01895 z m 1.4421,2.884188 c -0.13282,0.03798 -0.2277,0.07587 -0.28463,0.09488 -1.19542,0.474368 -2.48572,0.417442 -3.58627,-0.05693 -1.10056,-0.493349 -2.01135,-1.385167 -2.48573,-2.599564 -0.47437,-1.195424 -0.41746,-2.48572 0.0569,-3.586263 0.49335,-1.100544 1.38517,-2.011343 2.59958,-2.485712 0.49335,-0.189752 1.17644,-0.436431 2.08725,-0.702074 0.74002,-0.208725 1.57493,-0.436423 2.50471,-0.645148 5.69251,-1.309269 11.66964,-1.707746 17.7037,-0.872846 5.48378,0.758993 10.98655,2.542638 16.33751,5.597598 1.13849,0.645148 1.87853,1.669801 2.2011,2.846243 0.32258,1.157471 0.18975,2.428794 -0.4554,3.567283 v -0.01895 c -0.64515,1.138498 -1.6698,1.89749 -2.82728,2.201096 -1.17646,0.32257 -2.44778,0.189744 -3.56731,-0.436423 -4.26938,-2.447766 -8.67159,-3.870888 -13.03585,-4.459109 -4.83864,-0.664121 -9.6583,-0.341551 -14.26922,0.721047 -0.43642,0.09487 -0.87285,0.208725 -1.30928,0.32257 -0.41745,0.113853 -0.81593,0.227698 -1.2144,0.360524 v 0 z"
       id="path6230"
       style="clip-rule:evenodd;fill:#ff0000;fill-rule:nonzero;stroke-width:0.0189749;image-rendering:optimizeQuality;shape-rendering:geometricPrecision;text-rendering:geometricPrecision;fill-opacity:1" />
    <path
       class="fil1"
       d="m 227.33377,198.45445 c -11.08142,0 -21.13819,-4.49709 -28.40563,-11.76453 -7.26744,-7.26743 -11.76452,-17.3242 -11.76452,-28.40562 0,-11.08142 4.49708,-21.13819 11.76452,-28.40563 7.26744,-7.26744 17.32421,-11.76452 28.40563,-11.76452 11.08142,0 21.13818,4.49708 28.40561,11.76452 7.26739,7.26744 11.76445,17.32421 11.76445,28.40563 0,11.08142 -4.49706,21.13819 -11.76445,28.40562 -7.26743,7.26744 -17.32419,11.76453 -28.40561,11.76453 z m -26.12862,-14.04153 c 6.67921,6.67921 15.92005,10.81576 26.12862,10.81576 10.20857,0 19.44941,-4.13655 26.12861,-10.81576 6.67918,-6.67921 10.81571,-15.92005 10.81571,-26.12862 0,-10.20857 -4.13653,-19.44941 -10.81571,-26.12862 -6.6792,-6.67921 -15.92004,-10.81577 -26.12861,-10.81577 -10.20857,0 -19.44941,4.13656 -26.12862,10.81577 -6.67922,6.67921 -10.81577,15.92005 -10.81577,26.12862 0,10.20857 4.13655,19.44941 10.81577,26.12862 z m 2.59958,-36.54592 c 0.18974,-0.0759 0.43642,-0.17077 0.70207,-0.24667 0.1518,-0.0569 0.41745,-0.13283 0.87285,-0.28463 0.68311,-0.20872 1.40416,-0.39847 2.16315,-0.60719 0.70208,-0.17079 1.46109,-0.36053 2.29598,-0.55028 5.74944,-1.29031 11.72658,-1.91649 17.64679,-1.68878 5.50276,0.2277 10.96757,1.19542 16.22365,3.07395 1.40415,0.51233 2.82728,1.08158 4.23144,1.76469 1.40415,0.64515 2.7324,1.34722 4.02271,2.1252 0.36051,0.20872 0.75899,0.24667 1.11952,0.15179 0.37949,-0.0949 0.70207,-0.32257 0.9108,-0.66412 0.20872,-0.36053 0.26564,-0.759 0.17077,-1.1385 -0.0949,-0.36053 -0.32257,-0.70208 -0.6831,-0.9108 -1.40415,-0.83491 -2.82728,-1.5939 -4.2504,-2.25803 -1.4421,-0.6831 -2.94113,-1.29031 -4.51606,-1.85955 -5.55969,-1.99238 -11.27117,-3.01704 -16.96368,-3.26371 -6.26176,-0.26565 -12.52352,0.41745 -18.57656,1.76468 -1.30928,0.28462 -2.52368,0.60719 -3.5673,0.89182 -1.23338,0.36053 -2.18214,0.66413 -2.82729,0.89183 l -0.0189,0.019 c -0.3795,0.1518 -0.66412,0.41746 -0.81592,0.759 -0.17078,0.36053 -0.18976,0.75901 -0.0569,1.1385 l 0.019,0.038 c 0.15179,0.36053 0.41745,0.64516 0.759,0.79696 0.36053,0.17077 0.759,0.18974 1.13851,0.0569 z m 1.68877,2.78933 c -0.32257,0.11386 -0.49335,0.17079 -0.56925,0.20873 -1.2144,0.43642 -2.48572,0.36052 -3.58628,-0.13283 -1.08158,-0.51232 -1.99238,-1.42313 -2.44778,-2.63752 l -0.038,-0.11386 v -0.0189 c -0.39848,-1.17645 -0.3036,-2.39085 0.17077,-3.45345 0.49335,-1.08158 1.42313,-1.99238 2.63754,-2.44778 l 0.11384,-0.038 c 0.759,-0.26565 1.74571,-0.6072 2.96011,-0.92977 1.04362,-0.30361 2.29598,-0.62618 3.75706,-0.94876 6.29971,-1.40415 12.8461,-2.10623 19.3735,-1.8216 6.03407,0.24667 12.06813,1.32825 17.93141,3.43448 1.5939,0.56925 3.18781,1.21441 4.78171,1.9734 1.57493,0.74003 3.09292,1.53698 4.53502,2.40984 1.11952,0.66412 1.85954,1.70775 2.16314,2.86522 0.3036,1.17646 0.1518,2.44778 -0.51232,3.56731 -0.66412,1.11952 -1.72672,1.85956 -2.88419,2.14418 -1.15747,0.3036 -2.4288,0.1518 -3.54832,-0.51233 -1.23338,-0.74002 -2.48574,-1.40415 -3.73809,-1.99237 -1.25235,-0.58823 -2.5806,-1.11953 -3.96578,-1.61289 -4.95248,-1.78364 -10.09472,-2.69445 -15.25593,-2.90317 -5.65455,-0.2277 -11.34707,0.37949 -16.84983,1.61287 -0.74002,0.17078 -1.48005,0.34155 -2.18212,0.53131 -0.74003,0.18974 -1.42313,0.37949 -2.03034,0.56925 -0.20871,0.0569 -0.49334,0.1518 -0.81592,0.24667 z m 2.82728,8.84237 c 0.0759,-0.019 0.20873,-0.0949 0.37951,-0.17078 h 0.019 c 0.11384,-0.0569 0.24667,-0.11384 0.43643,-0.18974 0.39847,-0.17078 0.81592,-0.32258 1.25234,-0.47438 0.43643,-0.1518 0.89184,-0.28463 1.40416,-0.43643 4.81966,-1.34722 10.45525,-1.80263 16.86881,-1.00567 5.74943,0.70207 12.14402,2.44777 19.12683,5.44583 0.3795,0.1518 0.79695,0.1518 1.1385,0 0.36053,-0.13282 0.66413,-0.41745 0.81593,-0.77798 0.17077,-0.37949 0.1518,-0.79695 0.0189,-1.1385 -0.13283,-0.36052 -0.41746,-0.66412 -0.79696,-0.81592 -7.34334,-3.16883 -14.11742,-4.97146 -20.2843,-5.69251 -6.66024,-0.79696 -12.58046,-0.3036 -17.70372,1.11952 -0.92977,0.26565 -1.72672,0.53131 -2.37187,0.77798 -0.72106,0.26565 -1.30928,0.53131 -1.72672,0.759 -0.36053,0.18975 -0.58824,0.51233 -0.70208,0.87285 -0.11386,0.36053 -0.0759,0.77798 0.11384,1.13851 0.18976,0.36052 0.51233,0.6072 0.87286,0.72105 0.3795,0.11384 0.77797,0.0759 1.1385,-0.13283 z m 1.70776,2.75138 v 0 l -0.18976,0.0759 c -1.11952,0.62618 -2.40982,0.72105 -3.54833,0.3795 -1.15747,-0.34155 -2.18212,-1.1385 -2.8083,-2.277 -0.6072,-1.1385 -0.70208,-2.40983 -0.36053,-3.54833 0.34156,-1.15748 1.11953,-2.18213 2.25803,-2.80831 0.51233,-0.26565 1.2144,-0.58823 2.14418,-0.92977 0.75901,-0.28463 1.63186,-0.58823 2.61856,-0.85388 5.50276,-1.55596 11.84042,-2.08725 18.93708,-1.23338 6.43254,0.759 13.51023,2.63753 21.15717,5.92021 1.19542,0.51233 2.06827,1.46108 2.52368,2.58061 0.43642,1.10055 0.45539,2.39085 -0.038,3.58628 -0.51233,1.19543 -1.46108,2.06828 -2.58061,2.5047 -1.11952,0.4554 -2.39085,0.47438 -3.58629,-0.038 -6.69817,-2.86524 -12.78916,-4.51606 -18.25397,-5.19917 -5.97713,-0.759 -11.19527,-0.34154 -15.63544,0.9108 -0.43642,0.11386 -0.83489,0.24668 -1.21439,0.3795 -0.41745,0.13283 -0.77798,0.28463 -1.08158,0.39848 -0.13282,0.0569 -0.24668,0.11385 -0.34155,0.1518 z m -0.62618,8.46286 c 0.0759,-0.038 0.2277,-0.0949 0.41745,-0.1518 l 0.51233,-0.17077 v 0 c 0.39848,-0.13283 0.85388,-0.26565 1.34723,-0.39848 0.43642,-0.11384 0.9108,-0.2277 1.4421,-0.36052 4.95249,-1.1385 10.17062,-1.49903 15.38875,-0.77797 4.78171,0.66412 9.58239,2.2011 14.2123,4.8576 0.36052,0.20873 0.759,0.24667 1.11953,0.13283 0.3795,-0.0949 0.70208,-0.32258 0.91079,-0.68311 v 0 c 0.18976,-0.36052 0.24669,-0.77798 0.13283,-1.13849 -0.0949,-0.36054 -0.34154,-0.68311 -0.70207,-0.89183 -4.99044,-2.86524 -10.1137,-4.51607 -15.199,-5.21814 -5.61661,-0.77797 -11.19527,-0.39848 -16.52726,0.8349 -0.92977,0.20873 -1.70775,0.39848 -2.33393,0.58823 -0.759,0.2277 -1.3662,0.43643 -1.8216,0.6072 -0.3795,0.1518 -0.66412,0.43643 -0.81592,0.79695 -0.1518,0.34155 -0.17079,0.74003 -0.019,1.13851 0.1518,0.37949 0.43642,0.66412 0.79695,0.81592 0.34155,0.1518 0.759,0.17077 1.1385,0.019 z m 1.4421,2.88421 c -0.13282,0.038 -0.2277,0.0759 -0.28463,0.0949 -1.19542,0.47437 -2.48572,0.41744 -3.58627,-0.0569 -1.10056,-0.49335 -2.01135,-1.38518 -2.48573,-2.59958 -0.47437,-1.19543 -0.41746,-2.48574 0.0569,-3.58628 0.49335,-1.10055 1.38517,-2.01136 2.59958,-2.48573 0.49335,-0.18975 1.17644,-0.43644 2.08725,-0.70208 0.74002,-0.20872 1.57493,-0.43642 2.50471,-0.64515 5.69251,-1.30928 11.66964,-1.70776 17.7037,-0.87285 5.48378,0.759 10.98655,2.54265 16.33751,5.59763 1.13849,0.64515 1.87853,1.66981 2.2011,2.84626 0.32258,1.15747 0.18975,2.42881 -0.4554,3.5673 v -0.019 c -0.64515,1.13851 -1.6698,1.8975 -2.82728,2.20111 -1.17646,0.32257 -2.44778,0.18974 -3.56731,-0.43643 -4.26938,-2.44778 -8.67159,-3.87091 -13.03585,-4.45913 -4.83864,-0.66413 -9.6583,-0.34155 -14.26922,0.72105 -0.43642,0.0949 -0.87285,0.20873 -1.30928,0.32257 -0.41745,0.11386 -0.81593,0.2277 -1.2144,0.36053 v 0 z"
       id="path6232"
       style="clip-rule:evenodd;fill:#0100ff;fill-rule:nonzero;stroke-width:0.0189749;image-rendering:optimizeQuality;shape-rendering:geometricPrecision;text-rendering:geometricPrecision;fill-opacity:1;stroke:none;stroke-opacity:1" />
    <path
       class="fil1"
       d="m 79.695457,198.45445 c -11.081357,0 -21.13807,-4.49709 -28.405468,-11.76453 -7.267401,-7.26743 -11.764454,-17.3242 -11.764454,-28.40562 0,-11.08142 4.497053,-21.13819 11.764454,-28.40563 7.267398,-7.26744 17.324111,-11.76452 28.405468,-11.76452 11.081357,0 21.138063,4.49708 28.405493,11.76452 7.26739,7.26744 11.76445,17.32421 11.76445,28.40563 0,11.08142 -4.49706,21.13819 -11.76445,28.40562 -7.26743,7.26744 -17.324136,11.76453 -28.405493,11.76453 z M 53.566984,184.41292 c 6.679174,6.67921 15.91996,10.81576 26.128473,10.81576 10.208513,0 19.449299,-4.13655 26.128493,-10.81576 6.67918,-6.67921 10.81571,-15.92005 10.81571,-26.12862 0,-10.20857 -4.13653,-19.44941 -10.81571,-26.12862 -6.679194,-6.67921 -15.91998,-10.81577 -26.128493,-10.81577 -10.208513,0 -19.449299,4.13656 -26.128473,10.81577 -6.679181,6.67921 -10.815707,15.92005 -10.815707,26.12862 0,10.20857 4.136526,19.44941 10.815707,26.12862 z M 56.166549,147.867 c 0.18974,-0.0759 0.43642,-0.17077 0.702067,-0.24667 0.1518,-0.0569 0.417447,-0.13283 0.872844,-0.28463 0.683107,-0.20872 1.404154,-0.39847 2.163138,-0.60719 0.702077,-0.17079 1.461084,-0.36053 2.295968,-0.55028 5.749407,-1.29031 11.726514,-1.91649 17.646691,-1.68878 5.502727,0.2277 10.967507,1.19542 16.223557,3.07395 1.404141,0.51233 2.827265,1.08158 4.231416,1.76469 1.40415,0.64515 2.7324,1.34722 4.02271,2.1252 0.36051,0.20872 0.75899,0.24667 1.11952,0.15179 0.37949,-0.0949 0.70207,-0.32257 0.9108,-0.66412 0.20872,-0.36053 0.26564,-0.759 0.17077,-1.1385 -0.0949,-0.36053 -0.32257,-0.70208 -0.6831,-0.9108 -1.40415,-0.83491 -2.82728,-1.5939 -4.2504,-2.25803 -1.4421,-0.6831 -2.941121,-1.29031 -4.516042,-1.85955 -5.559657,-1.99238 -11.271107,-3.01704 -16.963584,-3.26371 -6.261724,-0.26565 -12.523448,0.41745 -18.576455,1.76468 -1.309271,0.28462 -2.523665,0.60719 -3.567279,0.89182 -1.233374,0.36053 -2.182128,0.66413 -2.827275,0.89183 l -0.0189,0.019 c -0.379497,0.1518 -0.664114,0.41746 -0.815914,0.759 -0.17078,0.36053 -0.18976,0.75901 -0.0569,1.1385 l 0.019,0.038 c 0.15179,0.36053 0.417447,0.64516 0.758994,0.79696 0.36053,0.17077 0.758997,0.18974 1.138504,0.0569 z m 1.688761,2.78933 c -0.322567,0.11386 -0.493347,0.17079 -0.569247,0.20873 -1.214391,0.43642 -2.485705,0.36052 -3.586259,-0.13283 -1.081574,-0.51232 -1.992368,-1.42313 -2.447765,-2.63752 l -0.038,-0.11386 v -0.0189 c -0.39848,-1.17645 -0.3036,-2.39085 0.170767,-3.45345 0.493347,-1.08158 1.423124,-1.99238 2.637525,-2.44778 l 0.11384,-0.038 c 0.758997,-0.26565 1.745701,-0.6072 2.960095,-0.92977 1.043614,-0.30361 2.295965,-0.62618 3.757036,-0.94876 6.299677,-1.40415 12.846028,-2.10623 19.373392,-1.8216 6.034034,0.24667 12.068061,1.32825 17.931308,3.43448 1.593891,0.56925 3.187798,1.21441 4.781698,1.9734 1.57493,0.74003 3.09292,1.53698 4.53502,2.40984 1.11952,0.66412 1.85954,1.70775 2.16314,2.86522 0.3036,1.17646 0.1518,2.44778 -0.51232,3.56731 -0.66412,1.11952 -1.72672,1.85956 -2.88419,2.14418 -1.15747,0.3036 -2.4288,0.1518 -3.54832,-0.51233 -1.23338,-0.74002 -2.48574,-1.40415 -3.738084,-1.99237 -1.252341,-0.58823 -2.580585,-1.11953 -3.965756,-1.61289 -4.952453,-1.78364 -10.094663,-2.69445 -15.255843,-2.90317 -5.65452,-0.2277 -11.347007,0.37949 -16.849734,1.61287 -0.740017,0.17078 -1.480044,0.34155 -2.182108,0.53131 -0.740027,0.18974 -1.423124,0.37949 -2.030328,0.56925 -0.20871,0.0569 -0.493337,0.1518 -0.815917,0.24667 z m 2.827265,8.84237 c 0.0759,-0.019 0.208727,-0.0949 0.379507,-0.17078 h 0.019 c 0.11384,-0.0569 0.24667,-0.11384 0.436427,-0.18974 0.398467,-0.17078 0.815917,-0.32258 1.252334,-0.47438 0.436427,-0.1518 0.891834,-0.28463 1.404151,-0.43643 4.819633,-1.34722 10.45519,-1.80263 16.868714,-1.00567 5.749397,0.70207 12.143951,2.44777 19.126722,5.44583 0.3795,0.1518 0.79695,0.1518 1.1385,0 0.36053,-0.13282 0.66413,-0.41745 0.81593,-0.77798 0.17077,-0.37949 0.1518,-0.79695 0.0189,-1.1385 -0.13283,-0.36052 -0.41746,-0.66412 -0.79696,-0.81592 -7.343304,-3.16883 -14.117345,-4.97146 -20.284192,-5.69251 -6.660201,-0.79696 -12.580388,-0.3036 -17.703618,1.11952 -0.929764,0.26565 -1.726711,0.53131 -2.371858,0.77798 -0.721054,0.26565 -1.309271,0.53131 -1.726711,0.759 -0.360527,0.18975 -0.588234,0.51233 -0.702074,0.87285 -0.11386,0.36053 -0.0759,0.77798 0.11384,1.13851 0.189757,0.36052 0.512327,0.6072 0.872854,0.72105 0.379497,0.11384 0.777964,0.0759 1.138494,-0.13283 z m 1.707751,2.75138 v 0 l -0.18976,0.0759 c -1.119514,0.62618 -2.409808,0.72105 -3.548309,0.3795 -1.157464,-0.34155 -2.182108,-1.1385 -2.808285,-2.277 -0.607197,-1.1385 -0.702077,-2.40983 -0.360527,-3.54833 0.341557,-1.15748 1.119524,-2.18213 2.258015,-2.80831 0.512327,-0.26565 1.214394,-0.58823 2.144168,-0.92977 0.759007,-0.28463 1.631851,-0.58823 2.618545,-0.85388 5.50273,-1.55596 11.840354,-2.08725 18.936975,-1.23338 6.432501,0.759 13.510152,2.63753 21.157062,5.92021 1.19542,0.51233 2.06827,1.46108 2.52368,2.58061 0.43642,1.10055 0.45539,2.39085 -0.038,3.58628 -0.51233,1.19543 -1.46108,2.06828 -2.58061,2.5047 -1.11952,0.4554 -2.39085,0.47438 -3.586281,-0.038 -6.698134,-2.86524 -12.789088,-4.51606 -18.253868,-5.19917 -5.977097,-0.759 -11.195207,-0.34154 -15.63535,0.9108 -0.43642,0.11386 -0.834887,0.24668 -1.214384,0.3795 -0.417447,0.13283 -0.777977,0.28463 -1.081574,0.39848 -0.13282,0.0569 -0.24668,0.11385 -0.341547,0.1518 z m -0.626177,8.46286 c 0.0759,-0.038 0.227697,-0.0949 0.417447,-0.1518 l 0.512327,-0.17077 v 0 c 0.398477,-0.13283 0.853874,-0.26565 1.347221,-0.39848 0.43642,-0.11384 0.910797,-0.2277 1.442094,-0.36052 4.95246,-1.1385 10.170563,-1.49903 15.388663,-0.77797 4.781683,0.66412 9.582336,2.2011 14.212219,4.8576 0.360517,0.20873 0.758994,0.24667 1.119524,0.13283 0.379497,-0.0949 0.702074,-0.32258 0.910784,-0.68311 v 0 c 0.18976,-0.36052 0.246687,-0.77798 0.13283,-1.13849 -0.0949,-0.36054 -0.34154,-0.68311 -0.702067,-0.89183 -4.990413,-2.86524 -10.113643,-4.51607 -15.198913,-5.21814 -5.61658,-0.77797 -11.195207,-0.39848 -16.527167,0.8349 -0.929764,0.20873 -1.707741,0.39848 -2.333918,0.58823 -0.758994,0.2277 -1.366191,0.43643 -1.821588,0.6072 -0.379497,0.1518 -0.664117,0.43643 -0.815917,0.79695 -0.151797,0.34155 -0.170787,0.74003 -0.019,1.13851 0.1518,0.37949 0.43642,0.66412 0.796947,0.81592 0.341547,0.1518 0.758994,0.17077 1.138494,0.019 z m 1.442091,2.88421 c -0.13282,0.038 -0.2277,0.0759 -0.284627,0.0949 -1.195414,0.47437 -2.485708,0.41744 -3.586252,-0.0569 -1.100554,-0.49335 -2.011338,-1.38518 -2.485715,-2.59958 -0.474367,-1.19543 -0.417457,-2.48574 0.0569,-3.58628 0.493347,-1.10055 1.385161,-2.01136 2.599565,-2.48573 0.493347,-0.18975 1.176434,-0.43644 2.087238,-0.70208 0.740017,-0.20872 1.574921,-0.43642 2.504695,-0.64515 5.69248,-1.30928 11.669574,-1.70776 17.703601,-0.87285 5.48375,0.759 10.986487,2.54265 16.337417,5.59763 1.138484,0.64515 1.878518,1.66981 2.201088,2.84626 0.32258,1.15747 0.18975,2.42881 -0.455397,3.5673 v -0.019 c -0.645147,1.13851 -1.669791,1.8975 -2.827265,2.20111 -1.176454,0.32257 -2.447765,0.18974 -3.567289,-0.43643 -4.269356,-2.44778 -8.671542,-3.87091 -13.035778,-4.45913 -4.83861,-0.66413 -9.658243,-0.34155 -14.269139,0.72105 -0.436417,0.0949 -0.872844,0.20873 -1.309271,0.32257 -0.417447,0.11386 -0.815927,0.2277 -1.214394,0.36053 v 0 z"
       id="path6234"
       style="clip-rule:evenodd;fill:#01ff00;fill-rule:nonzero;stroke-width:0.0189749;image-rendering:optimizeQuality;shape-rendering:geometricPrecision;text-rendering:geometricPrecision;fill-opacity:1" />
  </g>
</svg>
