<?xml version="1.0" standalone="no"?><svg xmlns="http://www.w3.org/2000/svg" viewBox="0 0 1440 320"><path fill="#2c3e50" fill-opacity="1" d="M0,160L30,170.7C60,181,120,203,180,181.3C240,160,300,96,360,106.7C420,117,480,203,540,240C600,277,660,267,720,224C780,181,840,107,900,106.7C960,107,1020,181,1080,202.7C1140,224,1200,192,1260,186.7C1320,181,1380,203,1410,213.3L1440,224L1440,0L1410,0C1380,0,1320,0,1260,0C1200,0,1140,0,1080,0C1020,0,960,0,900,0C840,0,780,0,720,0C660,0,600,0,540,0C480,0,420,0,360,0C300,0,240,0,180,0C120,0,60,0,30,0L0,0Z"></path></svg>